<mxfile host="app.diagrams.net" modified="2020-11-20T19:01:28.007Z" agent="5.0 (Macintosh; Intel Mac OS X 10_15_2) AppleWebKit/537.36 (KHTML, like Gecko) Chrome/86.0.4240.183 Safari/537.36 OPR/72.0.3815.320" etag="AgG-gU9Zr6s3MSYg47LZ" version="13.8.8" type="github">
  <diagram id="ZIjqRrrqUudWR3MNHGFB" name="Page-1">
    <mxGraphModel dx="1844" dy="1833" grid="1" gridSize="10" guides="1" tooltips="1" connect="1" arrows="1" fold="1" page="1" pageScale="1" pageWidth="827" pageHeight="1169" math="0" shadow="0">
      <root>
        <mxCell id="0" />
        <mxCell id="1" parent="0" />
        <mxCell id="5tydn42d7HWGj1WHtkxC-8" value="" style="rounded=0;whiteSpace=wrap;html=1;" vertex="1" parent="1">
          <mxGeometry x="-370" y="417.5" width="120" height="152.5" as="geometry" />
        </mxCell>
        <mxCell id="5tydn42d7HWGj1WHtkxC-2" value="" style="rounded=0;whiteSpace=wrap;html=1;" vertex="1" parent="1">
          <mxGeometry x="-735" y="240" width="295" height="510" as="geometry" />
        </mxCell>
        <mxCell id="5tydn42d7HWGj1WHtkxC-3" value="Sistema A (Distribuída)" style="text;html=1;strokeColor=none;fillColor=none;align=center;verticalAlign=middle;whiteSpace=wrap;rounded=0;" vertex="1" parent="1">
          <mxGeometry x="-730" y="225" width="280" height="10" as="geometry" />
        </mxCell>
        <mxCell id="5tydn42d7HWGj1WHtkxC-6" value="" style="rounded=0;whiteSpace=wrap;html=1;" vertex="1" parent="1">
          <mxGeometry x="-165" y="240" width="335" height="580" as="geometry" />
        </mxCell>
        <mxCell id="5tydn42d7HWGj1WHtkxC-7" value="Sistema B (Mainframe)" style="text;html=1;strokeColor=none;fillColor=none;align=center;verticalAlign=middle;whiteSpace=wrap;rounded=0;" vertex="1" parent="1">
          <mxGeometry x="-165" y="220" width="335" height="20" as="geometry" />
        </mxCell>
        <mxCell id="5tydn42d7HWGj1WHtkxC-9" value="Sistema C&lt;br&gt;(JavaWeb Server)" style="text;html=1;strokeColor=none;fillColor=none;align=center;verticalAlign=middle;whiteSpace=wrap;rounded=0;" vertex="1" parent="1">
          <mxGeometry x="-370" y="377.5" width="120" height="35" as="geometry" />
        </mxCell>
        <mxCell id="5tydn42d7HWGj1WHtkxC-10" value="" style="rounded=0;whiteSpace=wrap;html=1;" vertex="1" parent="1">
          <mxGeometry x="355" y="335" width="200" height="225" as="geometry" />
        </mxCell>
        <mxCell id="5tydn42d7HWGj1WHtkxC-12" value="" style="rounded=0;whiteSpace=wrap;html=1;" vertex="1" parent="1">
          <mxGeometry x="355" y="35" width="200" height="220" as="geometry" />
        </mxCell>
        <mxCell id="5tydn42d7HWGj1WHtkxC-13" value="Canal Client/Server" style="text;html=1;strokeColor=none;fillColor=none;align=center;verticalAlign=middle;whiteSpace=wrap;rounded=0;" vertex="1" parent="1">
          <mxGeometry x="375" y="10" width="160" height="20" as="geometry" />
        </mxCell>
        <mxCell id="5tydn42d7HWGj1WHtkxC-14" value="" style="rounded=0;whiteSpace=wrap;html=1;" vertex="1" parent="1">
          <mxGeometry x="355" y="652.5" width="200" height="157.5" as="geometry" />
        </mxCell>
        <mxCell id="5tydn42d7HWGj1WHtkxC-19" value="SQL" style="shape=cylinder3;whiteSpace=wrap;html=1;boundedLbl=1;backgroundOutline=1;size=15;" vertex="1" parent="1">
          <mxGeometry x="-490" y="690" width="50" height="60" as="geometry" />
        </mxCell>
        <mxCell id="5tydn42d7HWGj1WHtkxC-20" value="DB2" style="shape=cylinder3;whiteSpace=wrap;html=1;boundedLbl=1;backgroundOutline=1;size=15;" vertex="1" parent="1">
          <mxGeometry x="-165" y="760" width="50" height="60" as="geometry" />
        </mxCell>
        <mxCell id="5tydn42d7HWGj1WHtkxC-21" style="edgeStyle=orthogonalEdgeStyle;rounded=0;orthogonalLoop=1;jettySize=auto;html=1;exitX=1;exitY=0.5;exitDx=0;exitDy=0;entryX=0;entryY=0.5;entryDx=0;entryDy=0;exitPerimeter=0;" edge="1" parent="1" source="5tydn42d7HWGj1WHtkxC-57" target="5tydn42d7HWGj1WHtkxC-24">
          <mxGeometry relative="1" as="geometry">
            <mxPoint x="-55" y="309.9999999999999" as="sourcePoint" />
            <Array as="points">
              <mxPoint x="200" y="310" />
              <mxPoint x="200" y="395" />
            </Array>
          </mxGeometry>
        </mxCell>
        <mxCell id="5tydn42d7HWGj1WHtkxC-24" value="Produto&lt;br&gt;(telas personalizadas)" style="ellipse;whiteSpace=wrap;html=1;" vertex="1" parent="1">
          <mxGeometry x="410" y="350" width="90" height="90" as="geometry" />
        </mxCell>
        <mxCell id="5tydn42d7HWGj1WHtkxC-25" value="Produto&lt;br&gt;(telas e campos fixos)" style="ellipse;whiteSpace=wrap;html=1;" vertex="1" parent="1">
          <mxGeometry x="410" y="60" width="90" height="90" as="geometry" />
        </mxCell>
        <mxCell id="5tydn42d7HWGj1WHtkxC-26" style="edgeStyle=orthogonalEdgeStyle;rounded=0;orthogonalLoop=1;jettySize=auto;html=1;" edge="1" parent="1" source="5tydn42d7HWGj1WHtkxC-30" target="5tydn42d7HWGj1WHtkxC-82">
          <mxGeometry relative="1" as="geometry" />
        </mxCell>
        <mxCell id="5tydn42d7HWGj1WHtkxC-85" style="edgeStyle=orthogonalEdgeStyle;rounded=0;orthogonalLoop=1;jettySize=auto;html=1;entryX=0.5;entryY=0;entryDx=0;entryDy=0;" edge="1" parent="1" source="5tydn42d7HWGj1WHtkxC-30" target="5tydn42d7HWGj1WHtkxC-84">
          <mxGeometry relative="1" as="geometry" />
        </mxCell>
        <mxCell id="5tydn42d7HWGj1WHtkxC-30" value="Área Produtos" style="shape=umlActor;verticalLabelPosition=bottom;verticalAlign=top;html=1;outlineConnect=0;" vertex="1" parent="1">
          <mxGeometry x="-390" y="60" width="30" height="60" as="geometry" />
        </mxCell>
        <mxCell id="5tydn42d7HWGj1WHtkxC-33" value="" style="rounded=0;whiteSpace=wrap;html=1;" vertex="1" parent="1">
          <mxGeometry x="6.25" y="910" width="120" height="180" as="geometry" />
        </mxCell>
        <mxCell id="5tydn42d7HWGj1WHtkxC-34" value="Órgãos regulatórios" style="text;html=1;strokeColor=none;fillColor=none;align=center;verticalAlign=middle;whiteSpace=wrap;rounded=0;" vertex="1" parent="1">
          <mxGeometry x="-70" y="890" width="110" height="20" as="geometry" />
        </mxCell>
        <mxCell id="5tydn42d7HWGj1WHtkxC-36" style="edgeStyle=orthogonalEdgeStyle;rounded=0;orthogonalLoop=1;jettySize=auto;html=1;" edge="1" parent="1" source="5tydn42d7HWGj1WHtkxC-37" target="5tydn42d7HWGj1WHtkxC-63">
          <mxGeometry relative="1" as="geometry">
            <mxPoint x="470" y="485" as="targetPoint" />
            <Array as="points" />
          </mxGeometry>
        </mxCell>
        <mxCell id="5tydn42d7HWGj1WHtkxC-37" value="Cliente&lt;br&gt;" style="shape=umlActor;verticalLabelPosition=bottom;verticalAlign=top;html=1;outlineConnect=0;" vertex="1" parent="1">
          <mxGeometry x="630" y="475" width="30" height="60" as="geometry" />
        </mxCell>
        <mxCell id="5tydn42d7HWGj1WHtkxC-129" style="edgeStyle=orthogonalEdgeStyle;rounded=0;orthogonalLoop=1;jettySize=auto;html=1;" edge="1" parent="1" source="5tydn42d7HWGj1WHtkxC-43" target="5tydn42d7HWGj1WHtkxC-68">
          <mxGeometry relative="1" as="geometry" />
        </mxCell>
        <mxCell id="5tydn42d7HWGj1WHtkxC-43" value="Trade/Officer" style="shape=umlActor;verticalLabelPosition=bottom;verticalAlign=top;html=1;outlineConnect=0;" vertex="1" parent="1">
          <mxGeometry x="630" y="172.5" width="30" height="60" as="geometry" />
        </mxCell>
        <mxCell id="5tydn42d7HWGj1WHtkxC-48" value="&lt;h1&gt;Produto&lt;/h1&gt;&lt;p&gt;- Oferecido conforme sazonalidade&lt;/p&gt;&lt;p&gt;- Características próprias: qtd máx de contratações, período de validade de oferta e contratação pelo cliente&lt;/p&gt;&lt;p&gt;- 7 dias no máx. entre idealização e oferta ao cliente&lt;/p&gt;&lt;p&gt;- Sistema A: características como período de validade&lt;/p&gt;&lt;p&gt;- Sistema B: características como qtd disponível&lt;/p&gt;&lt;p&gt;- Algumas informações duplicadas nos dois sistemas&amp;nbsp;&lt;/p&gt;" style="text;html=1;strokeColor=none;fillColor=none;spacing=5;spacingTop=-20;whiteSpace=wrap;overflow=hidden;rounded=0;fontColor=#CCCCCC;" vertex="1" parent="1">
          <mxGeometry x="-820" y="-170" width="300" height="230" as="geometry" />
        </mxCell>
        <mxCell id="5tydn42d7HWGj1WHtkxC-15" value="Canal Mobile" style="text;html=1;strokeColor=none;fillColor=none;align=center;verticalAlign=middle;whiteSpace=wrap;rounded=0;" vertex="1" parent="1">
          <mxGeometry x="375" y="632.5" width="160" height="20" as="geometry" />
        </mxCell>
        <mxCell id="5tydn42d7HWGj1WHtkxC-52" value="&lt;p style=&quot;line-height: 100%&quot;&gt;&lt;/p&gt;&lt;ul&gt;&lt;li&gt;&lt;span&gt;Sistema recente, tecnologias atualizadas&lt;/span&gt;&lt;/li&gt;&lt;li&gt;&lt;span&gt;Rotina Control+M diária para atualizar informações de produtos contratados ou cancelados&lt;/span&gt;&lt;/li&gt;&lt;/ul&gt;&lt;p&gt;&lt;/p&gt;" style="text;html=1;strokeColor=none;fillColor=none;spacing=0;spacingTop=0;whiteSpace=wrap;overflow=hidden;rounded=0;" vertex="1" parent="1">
          <mxGeometry x="-750" y="655" width="240" height="95" as="geometry" />
        </mxCell>
        <mxCell id="5tydn42d7HWGj1WHtkxC-55" value="&lt;h1&gt;Stored Procedure&lt;/h1&gt;&lt;p&gt;Procedimento SQL salvo e reutilizado, meio que um script que executa uma query a partir de parâmetros&amp;nbsp;&lt;/p&gt;" style="text;html=1;strokeColor=none;fillColor=none;spacing=5;spacingTop=-20;whiteSpace=wrap;overflow=hidden;rounded=0;fontColor=#CCCCCC;" vertex="1" parent="1">
          <mxGeometry x="-500" y="-180" width="290" height="110" as="geometry" />
        </mxCell>
        <mxCell id="5tydn42d7HWGj1WHtkxC-127" style="edgeStyle=orthogonalEdgeStyle;rounded=0;orthogonalLoop=1;jettySize=auto;html=1;" edge="1" parent="1" source="5tydn42d7HWGj1WHtkxC-56" target="5tydn42d7HWGj1WHtkxC-25">
          <mxGeometry relative="1" as="geometry">
            <Array as="points">
              <mxPoint x="-510" y="170" />
              <mxPoint x="320" y="170" />
              <mxPoint x="320" y="105" />
            </Array>
          </mxGeometry>
        </mxCell>
        <mxCell id="5tydn42d7HWGj1WHtkxC-131" style="edgeStyle=orthogonalEdgeStyle;shape=flexArrow;rounded=0;orthogonalLoop=1;jettySize=auto;html=1;strokeColor=#B3B3B3;" edge="1" parent="1" source="5tydn42d7HWGj1WHtkxC-56" target="5tydn42d7HWGj1WHtkxC-48">
          <mxGeometry relative="1" as="geometry">
            <Array as="points">
              <mxPoint x="-507" y="360" />
              <mxPoint x="-800" y="360" />
            </Array>
          </mxGeometry>
        </mxCell>
        <mxCell id="5tydn42d7HWGj1WHtkxC-56" value="Produto&lt;br&gt;(valid., info, caract. negoc.)" style="shape=cylinder3;whiteSpace=wrap;html=1;boundedLbl=1;backgroundOutline=1;size=15;" vertex="1" parent="1">
          <mxGeometry x="-545" y="260" width="75" height="110" as="geometry" />
        </mxCell>
        <mxCell id="5tydn42d7HWGj1WHtkxC-57" value="Produto&lt;br&gt;(qtd, info, caract. negoc.)" style="shape=cylinder3;whiteSpace=wrap;html=1;boundedLbl=1;backgroundOutline=1;size=15;" vertex="1" parent="1">
          <mxGeometry x="80" y="260" width="60" height="100" as="geometry" />
        </mxCell>
        <mxCell id="5tydn42d7HWGj1WHtkxC-59" value="Valida&amp;nbsp;dados cliente" style="rounded=0;whiteSpace=wrap;html=1;" vertex="1" parent="1">
          <mxGeometry x="-357.5" y="427.5" width="95" height="30" as="geometry" />
        </mxCell>
        <mxCell id="5tydn42d7HWGj1WHtkxC-60" value="" style="endArrow=classic;startArrow=classic;html=1;exitX=1;exitY=0.5;exitDx=0;exitDy=0;" edge="1" parent="1" source="5tydn42d7HWGj1WHtkxC-76" target="5tydn42d7HWGj1WHtkxC-59">
          <mxGeometry width="50" height="50" relative="1" as="geometry">
            <mxPoint x="-225" y="495" as="sourcePoint" />
            <mxPoint x="-40" y="460" as="targetPoint" />
          </mxGeometry>
        </mxCell>
        <mxCell id="5tydn42d7HWGj1WHtkxC-74" style="edgeStyle=orthogonalEdgeStyle;rounded=0;orthogonalLoop=1;jettySize=auto;html=1;entryX=0.5;entryY=0;entryDx=0;entryDy=0;" edge="1" parent="1" source="5tydn42d7HWGj1WHtkxC-61" target="5tydn42d7HWGj1WHtkxC-78">
          <mxGeometry relative="1" as="geometry" />
        </mxCell>
        <mxCell id="5tydn42d7HWGj1WHtkxC-61" value="Valida dados &lt;br&gt;do cliente e da contração/cancelamento" style="rounded=0;whiteSpace=wrap;html=1;" vertex="1" parent="1">
          <mxGeometry x="-21.25" y="417.5" width="172.5" height="50" as="geometry" />
        </mxCell>
        <mxCell id="5tydn42d7HWGj1WHtkxC-62" value="" style="endArrow=classic;startArrow=classic;html=1;" edge="1" parent="1" source="5tydn42d7HWGj1WHtkxC-61" target="5tydn42d7HWGj1WHtkxC-59">
          <mxGeometry width="50" height="50" relative="1" as="geometry">
            <mxPoint x="-90" y="510" as="sourcePoint" />
            <mxPoint x="-40" y="460" as="targetPoint" />
          </mxGeometry>
        </mxCell>
        <mxCell id="5tydn42d7HWGj1WHtkxC-88" style="edgeStyle=orthogonalEdgeStyle;rounded=0;orthogonalLoop=1;jettySize=auto;html=1;" edge="1" parent="1" source="5tydn42d7HWGj1WHtkxC-63" target="5tydn42d7HWGj1WHtkxC-61">
          <mxGeometry relative="1" as="geometry">
            <Array as="points">
              <mxPoint x="270" y="505" />
              <mxPoint x="270" y="443" />
            </Array>
          </mxGeometry>
        </mxCell>
        <mxCell id="5tydn42d7HWGj1WHtkxC-63" value="Contratação / Cancelamento" style="rounded=0;whiteSpace=wrap;html=1;" vertex="1" parent="1">
          <mxGeometry x="370" y="475" width="170" height="60" as="geometry" />
        </mxCell>
        <mxCell id="5tydn42d7HWGj1WHtkxC-67" value="" style="endArrow=classic;startArrow=classic;html=1;" edge="1" parent="1" source="5tydn42d7HWGj1WHtkxC-37" target="5tydn42d7HWGj1WHtkxC-43">
          <mxGeometry width="50" height="50" relative="1" as="geometry">
            <mxPoint x="945" y="710" as="sourcePoint" />
            <mxPoint x="975" y="510" as="targetPoint" />
          </mxGeometry>
        </mxCell>
        <mxCell id="5tydn42d7HWGj1WHtkxC-89" style="edgeStyle=orthogonalEdgeStyle;rounded=0;orthogonalLoop=1;jettySize=auto;html=1;entryX=1;entryY=0.5;entryDx=0;entryDy=0;" edge="1" parent="1" source="5tydn42d7HWGj1WHtkxC-68" target="5tydn42d7HWGj1WHtkxC-61">
          <mxGeometry relative="1" as="geometry">
            <Array as="points">
              <mxPoint x="270" y="203" />
              <mxPoint x="270" y="443" />
            </Array>
          </mxGeometry>
        </mxCell>
        <mxCell id="5tydn42d7HWGj1WHtkxC-68" value="Contratação / Cancelamento" style="rounded=0;whiteSpace=wrap;html=1;" vertex="1" parent="1">
          <mxGeometry x="370" y="172.5" width="170" height="60" as="geometry" />
        </mxCell>
        <mxCell id="5tydn42d7HWGj1WHtkxC-98" style="edgeStyle=orthogonalEdgeStyle;rounded=0;orthogonalLoop=1;jettySize=auto;html=1;exitX=0.5;exitY=1;exitDx=0;exitDy=0;exitPerimeter=0;" edge="1" parent="1" source="5tydn42d7HWGj1WHtkxC-73" target="5tydn42d7HWGj1WHtkxC-97">
          <mxGeometry relative="1" as="geometry">
            <Array as="points">
              <mxPoint x="65" y="665" />
              <mxPoint x="65" y="665" />
            </Array>
          </mxGeometry>
        </mxCell>
        <mxCell id="5tydn42d7HWGj1WHtkxC-73" value="Contratação/&lt;br&gt;Cancelamento" style="shape=cylinder3;whiteSpace=wrap;html=1;boundedLbl=1;backgroundOutline=1;size=15;" vertex="1" parent="1">
          <mxGeometry x="25" y="575" width="80" height="80" as="geometry" />
        </mxCell>
        <mxCell id="5tydn42d7HWGj1WHtkxC-75" value="Cadastro Clientes" style="shape=cylinder3;whiteSpace=wrap;html=1;boundedLbl=1;backgroundOutline=1;size=15;" vertex="1" parent="1">
          <mxGeometry x="-715" y="402.5" width="60" height="80" as="geometry" />
        </mxCell>
        <mxCell id="5tydn42d7HWGj1WHtkxC-132" style="edgeStyle=orthogonalEdgeStyle;shape=flexArrow;rounded=0;orthogonalLoop=1;jettySize=auto;html=1;entryX=0.25;entryY=1;entryDx=0;entryDy=0;strokeColor=#B3B3B3;fontColor=#CCCCCC;exitX=0.75;exitY=0;exitDx=0;exitDy=0;" edge="1" parent="1" source="5tydn42d7HWGj1WHtkxC-76" target="5tydn42d7HWGj1WHtkxC-55">
          <mxGeometry relative="1" as="geometry">
            <Array as="points">
              <mxPoint x="-495" y="400" />
              <mxPoint x="-427" y="400" />
            </Array>
          </mxGeometry>
        </mxCell>
        <mxCell id="5tydn42d7HWGj1WHtkxC-76" value="Stored Procedure" style="rounded=0;whiteSpace=wrap;html=1;" vertex="1" parent="1">
          <mxGeometry x="-570" y="425" width="100" height="35" as="geometry" />
        </mxCell>
        <mxCell id="5tydn42d7HWGj1WHtkxC-95" style="edgeStyle=orthogonalEdgeStyle;rounded=0;orthogonalLoop=1;jettySize=auto;html=1;" edge="1" parent="1" source="5tydn42d7HWGj1WHtkxC-77" target="5tydn42d7HWGj1WHtkxC-94">
          <mxGeometry relative="1" as="geometry">
            <Array as="points">
              <mxPoint x="-680" y="615" />
            </Array>
          </mxGeometry>
        </mxCell>
        <mxCell id="5tydn42d7HWGj1WHtkxC-77" value="Rotina Control+M" style="rounded=0;whiteSpace=wrap;html=1;" vertex="1" parent="1">
          <mxGeometry x="-580" y="597.5" width="120" height="35" as="geometry" />
        </mxCell>
        <mxCell id="5tydn42d7HWGj1WHtkxC-80" style="edgeStyle=orthogonalEdgeStyle;rounded=0;orthogonalLoop=1;jettySize=auto;html=1;" edge="1" parent="1" source="5tydn42d7HWGj1WHtkxC-78" target="5tydn42d7HWGj1WHtkxC-73">
          <mxGeometry relative="1" as="geometry" />
        </mxCell>
        <mxCell id="5tydn42d7HWGj1WHtkxC-78" value="Grava Contrat./cancel." style="rounded=0;whiteSpace=wrap;html=1;" vertex="1" parent="1">
          <mxGeometry x="-20" y="515" width="170" height="30" as="geometry" />
        </mxCell>
        <mxCell id="5tydn42d7HWGj1WHtkxC-83" style="edgeStyle=orthogonalEdgeStyle;rounded=0;orthogonalLoop=1;jettySize=auto;html=1;entryX=0;entryY=0.5;entryDx=0;entryDy=0;entryPerimeter=0;" edge="1" parent="1" source="5tydn42d7HWGj1WHtkxC-82" target="5tydn42d7HWGj1WHtkxC-56">
          <mxGeometry relative="1" as="geometry" />
        </mxCell>
        <mxCell id="5tydn42d7HWGj1WHtkxC-82" value="Cadastro Produto e caract. negociação" style="rounded=0;whiteSpace=wrap;html=1;strokeColor=#000000;" vertex="1" parent="1">
          <mxGeometry x="-725" y="255" width="120" height="60" as="geometry" />
        </mxCell>
        <mxCell id="5tydn42d7HWGj1WHtkxC-86" style="edgeStyle=orthogonalEdgeStyle;rounded=0;orthogonalLoop=1;jettySize=auto;html=1;" edge="1" parent="1" source="5tydn42d7HWGj1WHtkxC-84" target="5tydn42d7HWGj1WHtkxC-57">
          <mxGeometry relative="1" as="geometry">
            <Array as="points" />
          </mxGeometry>
        </mxCell>
        <mxCell id="5tydn42d7HWGj1WHtkxC-84" value="Cadastro Produto e caract. negociação" style="rounded=0;whiteSpace=wrap;html=1;strokeColor=#000000;" vertex="1" parent="1">
          <mxGeometry x="-155" y="255" width="120" height="60" as="geometry" />
        </mxCell>
        <mxCell id="5tydn42d7HWGj1WHtkxC-91" value="" style="endArrow=classic;startArrow=classic;html=1;entryX=0;entryY=0.5;entryDx=0;entryDy=0;exitX=1;exitY=0.5;exitDx=0;exitDy=0;exitPerimeter=0;" edge="1" parent="1" source="5tydn42d7HWGj1WHtkxC-75" target="5tydn42d7HWGj1WHtkxC-76">
          <mxGeometry width="50" height="50" relative="1" as="geometry">
            <mxPoint x="-335" y="620" as="sourcePoint" />
            <mxPoint x="-285" y="570" as="targetPoint" />
          </mxGeometry>
        </mxCell>
        <mxCell id="5tydn42d7HWGj1WHtkxC-96" style="edgeStyle=orthogonalEdgeStyle;rounded=0;orthogonalLoop=1;jettySize=auto;html=1;entryX=0.5;entryY=1;entryDx=0;entryDy=0;entryPerimeter=0;" edge="1" parent="1" source="5tydn42d7HWGj1WHtkxC-94" target="5tydn42d7HWGj1WHtkxC-75">
          <mxGeometry relative="1" as="geometry">
            <Array as="points">
              <mxPoint x="-685" y="506" />
              <mxPoint x="-685" y="506" />
            </Array>
          </mxGeometry>
        </mxCell>
        <mxCell id="5tydn42d7HWGj1WHtkxC-94" value="Atualiza contrat. /cancelam." style="rounded=0;whiteSpace=wrap;html=1;" vertex="1" parent="1">
          <mxGeometry x="-715" y="530" width="170" height="30" as="geometry" />
        </mxCell>
        <mxCell id="5tydn42d7HWGj1WHtkxC-100" style="edgeStyle=orthogonalEdgeStyle;rounded=0;orthogonalLoop=1;jettySize=auto;html=1;" edge="1" parent="1" source="5tydn42d7HWGj1WHtkxC-97" target="5tydn42d7HWGj1WHtkxC-99">
          <mxGeometry relative="1" as="geometry" />
        </mxCell>
        <mxCell id="5tydn42d7HWGj1WHtkxC-97" value="Gera arquivo Contrat./cancel." style="rounded=0;whiteSpace=wrap;html=1;" vertex="1" parent="1">
          <mxGeometry x="-18.75" y="675" width="170" height="30" as="geometry" />
        </mxCell>
        <mxCell id="5tydn42d7HWGj1WHtkxC-99" value="Arquivo contrat. / cancelam." style="ellipse;whiteSpace=wrap;html=1;aspect=fixed;" vertex="1" parent="1">
          <mxGeometry x="26.25" y="725" width="80" height="80" as="geometry" />
        </mxCell>
        <mxCell id="5tydn42d7HWGj1WHtkxC-4" style="edgeStyle=orthogonalEdgeStyle;rounded=0;orthogonalLoop=1;jettySize=auto;html=1;entryX=0.5;entryY=0;entryDx=0;entryDy=0;" edge="1" parent="1" source="5tydn42d7HWGj1WHtkxC-99" target="5tydn42d7HWGj1WHtkxC-101">
          <mxGeometry relative="1" as="geometry" />
        </mxCell>
        <mxCell id="5tydn42d7HWGj1WHtkxC-101" value="Registra contrat. / cancelam." style="rounded=0;whiteSpace=wrap;html=1;" vertex="1" parent="1">
          <mxGeometry x="13.75" y="940" width="105" height="60" as="geometry" />
        </mxCell>
        <mxCell id="5tydn42d7HWGj1WHtkxC-102" value="&lt;h1&gt;Requisitos&lt;/h1&gt;" style="text;html=1;strokeColor=none;fillColor=none;spacing=5;spacingTop=-20;whiteSpace=wrap;overflow=hidden;rounded=0;" vertex="1" parent="1">
          <mxGeometry x="-730" y="1200" width="140" height="40" as="geometry" />
        </mxCell>
        <mxCell id="5tydn42d7HWGj1WHtkxC-111" style="edgeStyle=orthogonalEdgeStyle;rounded=0;orthogonalLoop=1;jettySize=auto;html=1;entryX=0;entryY=0.5;entryDx=0;entryDy=0;" edge="1" parent="1" source="5tydn42d7HWGj1WHtkxC-104" target="5tydn42d7HWGj1WHtkxC-109">
          <mxGeometry relative="1" as="geometry">
            <Array as="points">
              <mxPoint x="-110" y="1260" />
              <mxPoint x="-110" y="1290" />
            </Array>
          </mxGeometry>
        </mxCell>
        <mxCell id="5tydn42d7HWGj1WHtkxC-104" value="&lt;span style=&quot;text-align: left&quot;&gt;Ofertar produtos de Renda Fixa e Renda Variável de forma parametrizada, dinâmica, ágil e fácil&lt;/span&gt;" style="rounded=0;whiteSpace=wrap;html=1;" vertex="1" parent="1">
          <mxGeometry x="-700" y="1240" width="520" height="40" as="geometry" />
        </mxCell>
        <mxCell id="5tydn42d7HWGj1WHtkxC-112" style="edgeStyle=orthogonalEdgeStyle;rounded=0;orthogonalLoop=1;jettySize=auto;html=1;" edge="1" parent="1" source="5tydn42d7HWGj1WHtkxC-105">
          <mxGeometry relative="1" as="geometry">
            <mxPoint x="-50" y="1290" as="targetPoint" />
            <Array as="points">
              <mxPoint x="-110" y="1320" />
              <mxPoint x="-110" y="1290" />
            </Array>
          </mxGeometry>
        </mxCell>
        <mxCell id="5tydn42d7HWGj1WHtkxC-105" value="&lt;span style=&quot;text-align: left&quot;&gt;Disponibilizar as ofertas de novos produtos cadastrados em quaisquer canais do banco&lt;/span&gt;" style="rounded=0;whiteSpace=wrap;html=1;" vertex="1" parent="1">
          <mxGeometry x="-700" y="1300" width="520" height="40" as="geometry" />
        </mxCell>
        <mxCell id="5tydn42d7HWGj1WHtkxC-114" style="edgeStyle=orthogonalEdgeStyle;rounded=0;orthogonalLoop=1;jettySize=auto;html=1;entryX=0;entryY=0.5;entryDx=0;entryDy=0;" edge="1" parent="1" source="5tydn42d7HWGj1WHtkxC-106" target="5tydn42d7HWGj1WHtkxC-113">
          <mxGeometry relative="1" as="geometry" />
        </mxCell>
        <mxCell id="5tydn42d7HWGj1WHtkxC-106" value="Registro de logs de cadastro/alterações das ofertas de produtos cadastrados" style="rounded=0;whiteSpace=wrap;html=1;" vertex="1" parent="1">
          <mxGeometry x="-700" y="1360" width="520" height="40" as="geometry" />
        </mxCell>
        <mxCell id="5tydn42d7HWGj1WHtkxC-115" style="edgeStyle=orthogonalEdgeStyle;rounded=0;orthogonalLoop=1;jettySize=auto;html=1;entryX=0;entryY=0.5;entryDx=0;entryDy=0;" edge="1" parent="1" source="5tydn42d7HWGj1WHtkxC-107" target="5tydn42d7HWGj1WHtkxC-113">
          <mxGeometry relative="1" as="geometry" />
        </mxCell>
        <mxCell id="5tydn42d7HWGj1WHtkxC-107" value="Relatórios estatísticos sobre o comportamento dos clientes frente sua opção de contratação ou desistência de uma oferta de produtos" style="rounded=0;whiteSpace=wrap;html=1;" vertex="1" parent="1">
          <mxGeometry x="-700" y="1420" width="520" height="40" as="geometry" />
        </mxCell>
        <mxCell id="5tydn42d7HWGj1WHtkxC-116" style="edgeStyle=orthogonalEdgeStyle;rounded=0;orthogonalLoop=1;jettySize=auto;html=1;entryX=0;entryY=0.5;entryDx=0;entryDy=0;" edge="1" parent="1" source="5tydn42d7HWGj1WHtkxC-108" target="5tydn42d7HWGj1WHtkxC-113">
          <mxGeometry relative="1" as="geometry" />
        </mxCell>
        <mxCell id="5tydn42d7HWGj1WHtkxC-108" value="Estudos analíticos sobre cada oferta de produto para subsidiar a área de inteligência de mercado" style="rounded=0;whiteSpace=wrap;html=1;" vertex="1" parent="1">
          <mxGeometry x="-700" y="1480" width="520" height="40" as="geometry" />
        </mxCell>
        <mxCell id="5tydn42d7HWGj1WHtkxC-109" value="Desenho técnico de uma proposta de melhoria e evolução, considerando todo o contexto descrito, fluxo atuais, tecnologias e ferramentas disponívei no mercado" style="shape=process;whiteSpace=wrap;html=1;backgroundOutline=1;" vertex="1" parent="1">
          <mxGeometry x="-50" y="1240" width="340" height="100" as="geometry" />
        </mxCell>
        <mxCell id="5tydn42d7HWGj1WHtkxC-110" value="&lt;h1&gt;Objetivos&lt;/h1&gt;" style="text;html=1;strokeColor=none;fillColor=none;spacing=5;spacingTop=-20;whiteSpace=wrap;overflow=hidden;rounded=0;" vertex="1" parent="1">
          <mxGeometry x="-70" y="1200" width="140" height="40" as="geometry" />
        </mxCell>
        <mxCell id="5tydn42d7HWGj1WHtkxC-113" value="Sugestão de tecnologias e ferramentas que possam ser aplicadas no contexto" style="shape=process;whiteSpace=wrap;html=1;backgroundOutline=1;" vertex="1" parent="1">
          <mxGeometry x="-50" y="1360" width="340" height="160" as="geometry" />
        </mxCell>
        <mxCell id="5tydn42d7HWGj1WHtkxC-117" value="Canal Web" style="text;html=1;strokeColor=none;fillColor=none;align=center;verticalAlign=middle;whiteSpace=wrap;rounded=0;" vertex="1" parent="1">
          <mxGeometry x="375" y="315" width="160" height="20" as="geometry" />
        </mxCell>
        <mxCell id="5tydn42d7HWGj1WHtkxC-119" value="Gestão de quantidades" style="rounded=0;whiteSpace=wrap;html=1;" vertex="1" parent="1">
          <mxGeometry x="-155" y="365" width="120" height="60" as="geometry" />
        </mxCell>
        <mxCell id="5tydn42d7HWGj1WHtkxC-121" value="" style="endArrow=classic;startArrow=classic;html=1;" edge="1" parent="1" source="5tydn42d7HWGj1WHtkxC-119" target="5tydn42d7HWGj1WHtkxC-57">
          <mxGeometry width="50" height="50" relative="1" as="geometry">
            <mxPoint x="90" y="510" as="sourcePoint" />
            <mxPoint x="140" y="460" as="targetPoint" />
          </mxGeometry>
        </mxCell>
        <mxCell id="5tydn42d7HWGj1WHtkxC-122" value="&lt;meta charset=&quot;utf-8&quot;&gt;&lt;span style=&quot;color: rgb(0, 0, 0); font-family: helvetica; font-size: 12px; font-style: normal; font-weight: 400; letter-spacing: normal; text-align: left; text-indent: 0px; text-transform: none; word-spacing: 0px; background-color: rgb(248, 249, 250); display: inline; float: none;&quot;&gt;Servidor Websphere em backlevel&lt;/span&gt;" style="text;whiteSpace=wrap;html=1;" vertex="1" parent="1">
          <mxGeometry x="-370" y="535" width="120" height="30" as="geometry" />
        </mxCell>
        <mxCell id="5tydn42d7HWGj1WHtkxC-126" value="" style="endArrow=classic;startArrow=classic;html=1;" edge="1" parent="1" source="5tydn42d7HWGj1WHtkxC-77" target="5tydn42d7HWGj1WHtkxC-73">
          <mxGeometry width="50" height="50" relative="1" as="geometry">
            <mxPoint x="-460" y="592.5641025641025" as="sourcePoint" />
            <mxPoint x="25" y="613.2905982905977" as="targetPoint" />
          </mxGeometry>
        </mxCell>
      </root>
    </mxGraphModel>
  </diagram>
</mxfile>
